<svg width="120" height="35" viewBox="0 0 120 35" fill="none" xmlns="http://www.w3.org/2000/svg">
<g clip-path="url(#clip0_395_76)">
<path d="M52.7049 16.7767L54.7861 17.2054C54.5074 18.1791 54.0733 18.901 53.4851 19.3724C52.897 19.8438 52.1812 20.0795 51.3379 20.0795C50.1675 20.0795 49.264 19.6861 48.6259 18.8995C47.8735 17.9847 47.498 16.7045 47.498 15.0591C47.498 13.4136 47.8765 12.1394 48.6333 11.1642C49.2757 10.3407 50.1059 9.92969 51.1237 9.92969C52.256 9.92969 53.1434 10.3495 53.7858 11.1907C54.525 12.1541 54.8946 13.5742 54.8946 15.4509L54.8858 15.7441H49.6424C49.6541 16.513 49.8257 17.1097 50.1572 17.531C50.4887 17.9523 50.8876 18.1629 51.3555 18.1629C52.0302 18.1629 52.479 17.7004 52.7049 16.7753V16.7767ZM52.8134 14.1752C52.7958 13.418 52.6345 12.8479 52.3323 12.4664C52.0287 12.0849 51.6694 11.8934 51.2513 11.8934C50.8084 11.8934 50.4359 12.0922 50.1337 12.4885C49.8242 12.8921 49.6732 13.4534 49.679 14.1752H52.8134Z" fill="#293F6D"/>
<path d="M58.9563 19.8526H56.8574V10.1595H58.8023V11.5383C59.1352 10.8931 59.4344 10.4644 59.697 10.2508C59.961 10.0372 60.2646 9.93115 60.6107 9.93115C61.0889 9.93115 61.5465 10.0917 61.9836 10.4143L61.3294 12.6505C60.9847 12.3706 60.6577 12.2307 60.3482 12.2307C60.0578 12.2307 59.8011 12.3382 59.5811 12.5548C59.3596 12.7713 59.2012 13.1617 59.1044 13.7288C59.0076 14.296 58.9592 15.3375 58.9592 16.8533V19.8511L58.9563 19.8526Z" fill="#293F6D"/>
<path d="M66.8504 10.1596V12.2043H65.4233V16.1169C65.4233 16.9639 65.4439 17.4545 65.4864 17.5885C65.5715 17.8331 65.7431 17.9539 66.0041 17.9539C66.1977 17.9539 66.4764 17.8714 66.8402 17.7078L67.022 19.698C66.538 19.9529 65.9895 20.081 65.3779 20.081C64.844 20.081 64.4172 19.9529 64.096 19.6966C63.7747 19.4402 63.5591 19.072 63.4506 18.5902C63.3655 18.2367 63.323 17.5178 63.323 16.4336V12.2028H62.3594V10.1581H63.323V8.23277L65.4219 6.73608V10.1581H66.849L66.8504 10.1596Z" fill="#293F6D"/>
<path d="M73.2674 16.7767L75.3486 17.2054C75.0699 18.1791 74.6358 18.901 74.0476 19.3724C73.4595 19.8438 72.7437 20.0795 71.9004 20.0795C70.73 20.0795 69.8265 19.6861 69.1884 18.8995C68.436 17.9847 68.0605 16.7045 68.0605 15.0591C68.0605 13.4136 68.439 12.1394 69.1958 11.1642C69.8382 10.3407 70.6683 9.92969 71.6862 9.92969C72.8185 9.92969 73.7059 10.3495 74.3483 11.1907C75.0875 12.1541 75.4571 13.5742 75.4571 15.4509L75.4483 15.7441H70.2049C70.2166 16.513 70.3882 17.1097 70.7197 17.531C71.0512 17.9523 71.4501 18.1629 71.918 18.1629C72.5927 18.1629 73.0415 17.7004 73.2674 16.7753V16.7767ZM73.3759 14.1752C73.3583 13.418 73.1969 12.8479 72.8948 12.4664C72.5912 12.0849 72.2319 11.8934 71.8138 11.8934C71.3709 11.8934 70.9984 12.0922 70.6962 12.4885C70.3867 12.8921 70.2357 13.4534 70.2415 14.1752H73.3759Z" fill="#293F6D"/>
<path d="M76.5 19.8528L79.3395 14.8957L76.6188 10.1597H79.1811L80.62 12.6595L82.0515 10.1597H84.5053L81.8476 14.7926L84.7605 19.8528H82.1879L80.5657 17.0288L78.945 19.8528H76.5Z" fill="#293F6D"/>
<path d="M85 21.2756H35.7891V21.3832H85V21.2756Z" fill="#293F6D"/>
<path d="M69.6457 22.8992L68.3066 24.8997H70.9174V24.9011H73.8141V31.9736H76.0992V24.9011H79.0488V22.8992H69.6457Z" fill="#293F6D"/>
<path d="M55.7866 28.4234V26.5083V24.9012H60.2674V22.8918H53.5059V32.0001H60.2674V29.9908H55.7866V28.4234Z" fill="#293F6D"/>
<path d="M62.9262 22.8992H60.6426L63.6831 27.4423L60.6426 31.9662H62.9262L65.9653 27.4423L62.9262 22.8992Z" fill="#293F6D"/>
<path d="M65.1699 29.6358L66.7364 31.9662H69.0186L66.311 27.9373L65.1699 29.6358Z" fill="#293F6D"/>
<path d="M69.0186 22.8992H66.7364L65.1699 25.24L66.311 26.9473L69.0186 22.8992Z" fill="#293F6D"/>
<path d="M56.6445 28.4145H62.4263L63.076 27.4423L62.4204 26.4626H56.6445V28.4145Z" fill="#293F6D"/>
<path d="M52.9584 22.8918V24.8437H50.2992V32.0001H47.5125L44.5659 26.7367V32.0001H42.2852V22.8918H44.9252L48.02 28.4367V22.8918H52.9584Z" fill="#293F6D"/>
<path d="M35 12.4532C35.3887 12.4016 35.7788 12.353 36.1675 12.2985C36.7512 12.216 37.3321 12.1262 37.9158 12.0422C38.0771 12.0186 38.2473 12.0171 38.4013 11.9744C38.6184 11.9126 38.7548 11.9921 38.8868 12.1276C39.1478 12.3972 39.4177 12.6609 39.6847 12.929C39.7023 12.9467 39.7272 12.9629 39.7111 13.0012C39.6128 12.9953 39.5131 12.985 39.4119 12.985C38.1109 12.985 36.8099 12.9835 35.5089 12.985C35.3945 12.985 35.3212 12.9673 35.2581 12.8657C35.1833 12.7434 35.1217 12.6093 35 12.5121C35 12.493 35 12.4723 35 12.4532Z" fill="#293F6D"/>
<path d="M57.4621 2C57.072 2.1974 56.6789 2.39185 56.2932 2.59514C56.0145 2.74098 55.7432 2.8986 55.4718 3.05475C55.3999 3.096 55.3295 3.12104 55.2415 3.11957C54.8998 3.11662 54.5566 3.11957 54.2148 3.11957C54.2178 3.09305 54.2559 3.09011 54.2838 3.07685C55.2401 2.63491 56.2125 2.22833 57.2759 2.02799C57.2949 2.02357 57.3125 2.01031 57.3316 2C57.3756 2 57.4196 2 57.4636 2H57.4621Z" fill="#293F6D"/>
<path d="M35.6655 13.4535H37.5136C38.3467 13.4535 39.1783 13.4564 40.0114 13.4505C40.1331 13.4505 40.2211 13.4785 40.2989 13.561C40.5702 13.8497 40.8533 14.1296 41.1143 14.4228C41.3446 14.6806 41.3358 14.6879 41.528 14.4066C41.7362 14.1016 41.9753 13.8144 42.2026 13.5212C42.2598 13.4476 42.3273 13.4535 42.4036 13.4535C43.4449 13.4535 44.4878 13.4535 45.5291 13.4535C45.6303 13.4535 45.7315 13.4432 45.8518 13.4358C45.6597 13.7496 45.4749 14.0471 45.2915 14.3476C45.205 14.4905 45.1184 14.632 45.0407 14.7778C44.9732 14.906 44.8823 14.9605 44.7107 14.959C42.1528 14.9531 39.5948 14.9546 37.0354 14.956C36.943 14.956 36.8477 14.9413 36.7568 14.9693C36.7025 14.9855 36.6761 14.9619 36.6512 14.9236C36.3285 14.4419 36.0043 13.9587 35.6641 13.4535H35.6655Z" fill="#293F6D"/>
<path d="M44.6268 15.426C44.643 15.4717 44.621 15.4953 44.6063 15.5218C44.3643 15.9622 44.1208 16.4012 43.8832 16.8432C43.8348 16.933 43.7761 16.9595 43.6676 16.9595C41.8371 16.9566 40.0067 16.9566 38.1762 16.9595C38.0794 16.9595 38.0208 16.9404 37.9665 16.8594C37.6732 16.4174 37.371 15.9799 37.0689 15.5424C36.9911 15.429 37.0586 15.426 37.1613 15.426C38.0706 15.426 38.98 15.426 39.8894 15.426C41.4103 15.426 42.9328 15.426 44.4537 15.426H44.6268Z" fill="#293F6D"/>
<path d="M38.3608 17.4H38.5896C40.1546 17.4 41.7211 17.4 43.286 17.4C43.3359 17.4 43.3858 17.3955 43.4342 17.4C43.4855 17.4044 43.5456 17.3366 43.5808 17.397C43.6072 17.4397 43.5486 17.4854 43.528 17.5296C43.3212 17.9612 43.1115 18.3928 42.9091 18.8259C42.8739 18.9011 42.8343 18.932 42.7419 18.932C41.6565 18.9291 40.5697 18.9305 39.4843 18.932C39.4213 18.932 39.3685 18.9261 39.3303 18.8687C39.0135 18.3987 38.6953 17.9303 38.377 17.4618C38.3696 17.45 38.3696 17.4338 38.3594 17.4H38.3608Z" fill="#293F6D"/>
<path d="M42.6733 12.9836C43.0503 12.5461 43.4434 12.1631 43.7939 11.7521C43.9919 11.5208 44.2104 11.4708 44.5097 11.4752C45.3295 11.4899 46.1509 11.4796 46.9708 11.4811C47.0221 11.4811 47.0925 11.4531 47.1204 11.5076C47.1409 11.5488 47.0896 11.5857 47.0647 11.6225C46.7948 12.0187 46.522 12.415 46.2594 12.8157C46.1832 12.9321 46.0996 12.9866 45.9368 12.9851C44.913 12.9777 43.8878 12.9807 42.864 12.9807H42.6719L42.6733 12.9836Z" fill="#293F6D"/>
<path d="M48.6222 9.50852C48.3068 9.92835 47.9929 10.3158 47.7172 10.7253C47.5661 10.9507 47.3931 11.0258 47.0982 11.0185C46.3121 10.9964 45.523 11.0111 44.7354 11.0096C44.6826 11.0096 44.6092 11.0361 44.5828 10.9875C44.5535 10.9345 44.6283 10.908 44.6635 10.8741C45.0595 10.4822 45.457 10.0904 45.8515 9.69855C45.9762 9.57481 46.1038 9.4982 46.315 9.50262C47.0748 9.51735 47.8345 9.50852 48.6222 9.50852Z" fill="#293F6D"/>
<path d="M46.582 9.03697C46.6935 8.9206 46.7786 8.82042 46.8754 8.73056C47.2831 8.35345 47.6967 7.98075 48.1045 7.60363C48.1778 7.53587 48.2541 7.50346 48.3626 7.50493C48.9904 7.50935 49.6181 7.50788 50.262 7.50788C50.2019 7.65666 50.0831 7.75831 49.9863 7.86879C49.69 8.20761 49.401 8.55084 49.1224 8.89997C49.0432 8.99867 48.9581 9.04434 48.8114 9.04286C48.0795 9.03403 47.3477 9.03844 46.582 9.03844V9.03697Z" fill="#293F6D"/>
<path d="M48.7461 7.06467C48.7828 6.98365 48.8238 6.93504 48.8752 6.88937C49.3518 6.47542 49.8271 6.06148 50.3037 5.64901C50.3932 5.5724 50.4929 5.52821 50.6264 5.53116C51.0826 5.53852 51.5402 5.53263 51.9963 5.5341C52.0374 5.5341 52.0946 5.51348 52.1166 5.55767C52.1386 5.60187 52.0828 5.62544 52.0535 5.65048C51.5768 6.06295 51.1808 6.53877 50.7584 6.99249C50.7159 7.03815 50.6792 7.06614 50.6103 7.06614C49.9943 7.06614 49.3782 7.06614 48.7461 7.06614V7.06467Z" fill="#293F6D"/>
<path d="M39.6694 19.3724C40.5832 19.3724 41.4838 19.3724 42.3843 19.3724C42.4342 19.3724 42.484 19.3724 42.5324 19.3724C42.619 19.3709 42.6556 19.3901 42.6175 19.477C42.4943 19.7583 42.3711 20.0412 42.2596 20.327C42.2244 20.4154 42.1702 20.4345 42.0778 20.4345C41.5498 20.4316 41.0203 20.4345 40.4923 20.4345C40.438 20.4345 40.3852 20.4404 40.3485 20.3859C40.1226 20.0471 39.8953 19.7097 39.668 19.3739L39.6694 19.3724Z" fill="#293F6D"/>
<path d="M51.0234 5.09216C51.2082 4.95222 51.352 4.83584 51.506 4.72978C52.0604 4.34529 52.6265 3.97554 53.2162 3.63525C53.3042 3.58517 53.3878 3.55718 53.4919 3.55865C53.8659 3.5616 54.2414 3.55865 54.6403 3.55865C54.5362 3.68828 54.3939 3.75457 54.2751 3.83707C53.7926 4.17588 53.3174 4.52354 52.8832 4.91097C52.7454 5.03324 52.5987 5.101 52.3904 5.09364C51.9519 5.0789 51.5133 5.08922 51.0234 5.08922V5.09216Z" fill="#293F6D"/>
</g>
<defs>
<clipPath id="clip0_395_76">
<rect width="50" height="30" fill="white" transform="translate(35 2)"/>
</clipPath>
</defs>
</svg>
