<svg width="204" height="70" viewBox="0 0 204 70" fill="none" xmlns="http://www.w3.org/2000/svg">
<g clip-path="url(#clip0_404_20)">
<g filter="url(#filter0_dd_404_20)">
<path d="M196 0H8C3.58172 0 0 3.58172 0 8V62C0 66.4183 3.58172 70 8 70H196C200.418 70 204 66.4183 204 62V8C204 3.58172 200.418 0 196 0Z" fill="#272727"/>
<path d="M196 0H8C3.58172 0 0 3.58172 0 8V62C0 66.4183 3.58172 70 8 70H196C200.418 70 204 66.4183 204 62V8C204 3.58172 200.418 0 196 0Z" fill="url(#paint0_radial_404_20)" fill-opacity="0.2"/>
<path d="M88.2849 34.5834L92.1976 35.3836C91.6737 37.2012 90.8575 38.5486 89.7518 39.4286C88.6461 40.3085 87.3005 40.7485 85.715 40.7485C83.5146 40.7485 81.816 40.0143 80.6165 38.5459C79.202 36.8383 78.4961 34.4487 78.4961 31.3771C78.4961 28.3056 79.2075 25.927 80.6303 24.1066C81.8381 22.5695 83.3988 21.8023 85.3124 21.8023C87.4411 21.8023 89.1093 22.586 90.3171 24.1561C91.7068 25.9545 92.4017 28.6053 92.4017 32.1086L92.3851 32.6558H82.5274C82.5495 34.0912 82.8721 35.2049 83.4953 35.9913C84.1184 36.7778 84.8685 37.171 85.7481 37.171C87.0165 37.171 87.8602 36.3075 88.2849 34.5807V34.5834ZM88.4889 29.7272C88.4558 28.3138 88.1525 27.2496 87.5845 26.5374C87.0137 25.8252 86.3382 25.4678 85.5523 25.4678C84.7196 25.4678 84.0192 25.839 83.4512 26.5787C82.8693 27.3321 82.5853 28.3798 82.5964 29.7272H88.4889Z" fill="white"/>
<path d="M100.038 40.325H96.0918V22.2312H99.7481V24.8051C100.374 23.6006 100.937 22.8004 101.43 22.4017C101.926 22.003 102.497 21.805 103.148 21.805C104.047 21.805 104.907 22.1047 105.729 22.7069L104.499 26.8812C103.851 26.3587 103.236 26.0975 102.654 26.0975C102.108 26.0975 101.626 26.2982 101.212 26.7024C100.796 27.1066 100.498 27.8354 100.316 28.894C100.134 29.9527 100.043 31.8968 100.043 34.7264V40.3223L100.038 40.325Z" fill="white"/>
<path d="M114.881 22.2312V26.048H112.198V33.3515C112.198 34.9326 112.236 35.8483 112.316 36.0985C112.476 36.555 112.799 36.7805 113.29 36.7805C113.654 36.7805 114.178 36.6265 114.861 36.3213L115.203 40.0363C114.293 40.512 113.262 40.7512 112.112 40.7512C111.109 40.7512 110.306 40.512 109.702 40.0335C109.098 39.5551 108.693 38.8676 108.489 37.9684C108.329 37.3085 108.249 35.9666 108.249 33.9427V26.0452H106.438V22.2285H108.249V18.6345L112.195 15.8407V22.2285H114.878L114.881 22.2312Z" fill="white"/>
<path d="M126.941 34.5834L130.854 35.3836C130.33 37.2012 129.514 38.5486 128.408 39.4286C127.302 40.3085 125.957 40.7485 124.371 40.7485C122.171 40.7485 120.472 40.0143 119.273 38.5459C117.858 36.8383 117.152 34.4487 117.152 31.3771C117.152 28.3056 117.864 25.927 119.287 24.1066C120.494 22.5695 122.055 21.8023 123.969 21.8023C126.097 21.8023 127.766 22.586 128.973 24.1561C130.363 25.9545 131.058 28.6053 131.058 32.1086L131.041 32.6558H121.184C121.206 34.0912 121.528 35.2049 122.152 35.9913C122.775 36.7778 123.525 37.171 124.404 37.171C125.673 37.171 126.516 36.3075 126.941 34.5807V34.5834ZM127.145 29.7272C127.112 28.3138 126.809 27.2496 126.241 26.5374C125.67 25.8252 124.994 25.4678 124.209 25.4678C123.376 25.4678 122.675 25.839 122.107 26.5787C121.526 27.3321 121.242 28.3798 121.253 29.7272H127.145Z" fill="white"/>
<path d="M133.021 40.325L138.36 31.0719L133.245 22.2312H138.062L140.767 26.8977L143.458 22.2312H148.071L143.075 30.8794L148.551 40.325H143.715L140.665 35.0536L137.618 40.325H133.021Z" fill="white"/>
<path d="M149.001 42.9813H56.4844V43.1821H149.001V42.9813Z" fill="white"/>
<path d="M120.133 46.0116L117.615 49.7459H122.523V49.7486H127.969V62.9505H132.265V49.7486H137.81V46.0116H120.133Z" fill="white"/>
<path d="M94.0768 56.3235V52.7487V49.7487H102.501V45.9979H89.7891V63H102.501V59.2493H94.0768V56.3235Z" fill="white"/>
<path d="M107.5 46.0116H103.207L108.923 54.4921L103.207 62.9367H107.5L113.214 54.4921L107.5 46.0116Z" fill="white"/>
<path d="M111.719 58.5865L114.664 62.9368H118.954L113.864 55.416L111.719 58.5865Z" fill="white"/>
<path d="M118.954 46.0116H114.664L111.719 50.3811L113.864 53.5681L118.954 46.0116Z" fill="white"/>
<path d="M95.6895 56.307H106.559L107.781 54.4921L106.548 52.6635H95.6895V56.307Z" fill="white"/>
<path d="M88.7609 45.9979V49.6414H83.7618V63H78.5227L72.9831 53.1749V63H68.6953V45.9979H73.6586L79.4768 56.3482V45.9979H88.7609Z" fill="white"/>
<path d="M55 26.5127C55.7307 26.4165 56.4642 26.3257 57.1949 26.224C58.2923 26.07 59.3843 25.9022 60.4817 25.7455C60.785 25.7015 61.1049 25.6988 61.3944 25.619C61.8025 25.5035 62.059 25.652 62.3071 25.905C62.798 26.4082 63.3053 26.9004 63.8072 27.4009C63.8403 27.4339 63.8871 27.4641 63.8568 27.5356C63.6721 27.5246 63.4846 27.5054 63.2943 27.5054C60.8485 27.5054 58.4026 27.5026 55.9568 27.5054C55.7417 27.5054 55.6039 27.4724 55.4853 27.2827C55.3447 27.0544 55.2289 26.8042 55 26.6227C55 26.5869 55 26.5484 55 26.5127Z" fill="white"/>
<path d="M97.2299 7C96.4964 7.36848 95.7574 7.73145 95.0322 8.11093C94.5083 8.38316 93.9982 8.67739 93.4881 8.96887C93.353 9.04586 93.2206 9.09261 93.0552 9.08986C92.4127 9.08436 91.7675 9.08986 91.125 9.08986C91.1305 9.04036 91.2022 9.03486 91.2546 9.01011C93.0524 8.18517 94.8806 7.42622 96.8797 7.05225C96.9156 7.044 96.9486 7.01925 96.9845 7C97.0672 7 97.1499 7 97.2327 7H97.2299Z" fill="white"/>
<path d="M56.2528 28.3798H59.7271C61.2933 28.3798 62.8568 28.3853 64.423 28.3743C64.6518 28.3743 64.8173 28.4266 64.9634 28.5806C65.4735 29.1195 66.0057 29.642 66.4965 30.1892C66.9294 30.6704 66.9129 30.6842 67.2741 30.1589C67.6657 29.5897 68.1151 29.0535 68.5425 28.5063C68.6501 28.3688 68.7769 28.3798 68.9203 28.3798C70.8781 28.3798 72.8386 28.3798 74.7963 28.3798C74.9866 28.3798 75.1769 28.3606 75.403 28.3468C75.0417 28.9325 74.6943 29.488 74.3496 30.049C74.187 30.3157 74.0243 30.5797 73.8781 30.8519C73.7513 31.0911 73.5803 31.1929 73.2577 31.1901C68.4488 31.1791 63.6399 31.1819 58.8282 31.1846C58.6545 31.1846 58.4752 31.1571 58.3043 31.2094C58.2022 31.2396 58.1526 31.1956 58.1057 31.1241C57.4991 30.2249 56.8897 29.323 56.25 28.3798H56.2528Z" fill="white"/>
<path d="M73.0965 32.0618C73.1269 32.1471 73.0855 32.1911 73.0579 32.2406C72.603 33.0627 72.1452 33.8822 71.6985 34.7071C71.6075 34.8749 71.4972 34.9244 71.2932 34.9244C67.8519 34.9189 64.4107 34.9189 60.9695 34.9244C60.7875 34.9244 60.6772 34.8886 60.5752 34.7374C60.0237 33.9124 59.4557 33.0957 58.8876 32.279C58.7415 32.0673 58.8683 32.0618 59.0613 32.0618C60.7709 32.0618 62.4805 32.0618 64.1901 32.0618C67.0495 32.0618 69.9117 32.0618 72.7712 32.0618H73.0965Z" fill="white"/>
<path d="M61.3172 35.7466H61.7474C64.6895 35.7466 67.6344 35.7466 70.5766 35.7466C70.6703 35.7466 70.7641 35.7383 70.8551 35.7466C70.9516 35.7548 71.0646 35.6283 71.1308 35.7411C71.1804 35.8208 71.0702 35.9061 71.0315 35.9886C70.6428 36.7942 70.2484 37.5999 69.8679 38.4084C69.8017 38.5486 69.7273 38.6064 69.5536 38.6064C67.5131 38.6009 65.4699 38.6036 63.4294 38.6064C63.3108 38.6064 63.2115 38.5954 63.1399 38.4881C62.5443 37.6109 61.9459 36.7365 61.3475 35.8621C61.3338 35.8401 61.3338 35.8098 61.3145 35.7466H61.3172Z" fill="white"/>
<path d="M69.4266 27.5026C70.1352 26.6859 70.8742 25.971 71.5332 25.2038C71.9055 24.7721 72.3163 24.6786 72.8789 24.6868C74.4202 24.7143 75.9644 24.6951 77.5058 24.6978C77.6023 24.6978 77.7346 24.6456 77.787 24.7473C77.8256 24.8243 77.7291 24.8931 77.6823 24.9618C77.1749 25.7015 76.662 26.4412 76.1684 27.1892C76.0251 27.4064 75.8679 27.5081 75.5618 27.5054C73.6371 27.4916 71.7097 27.4971 69.785 27.4971H69.4238L69.4266 27.5026Z" fill="white"/>
<path d="M80.6104 21.0158C80.0175 21.7995 79.4274 22.5227 78.909 23.2872C78.625 23.7079 78.2997 23.8481 77.7454 23.8344C76.2674 23.7931 74.784 23.8206 73.3032 23.8179C73.204 23.8179 73.0661 23.8674 73.0165 23.7766C72.9613 23.6776 73.1019 23.6281 73.1681 23.5649C73.9126 22.8334 74.6599 22.102 75.4016 21.3705C75.636 21.1396 75.8759 20.9966 76.273 21.0048C77.7013 21.0323 79.1296 21.0158 80.6104 21.0158Z" fill="white"/>
<path d="M76.7734 20.1359C76.983 19.9186 77.1429 19.7316 77.3249 19.5639C78.0915 18.86 78.8691 18.1643 79.6356 17.4603C79.7735 17.3338 79.9169 17.2733 80.1209 17.2761C81.3011 17.2843 82.4813 17.2816 83.6918 17.2816C83.5787 17.5593 83.3554 17.749 83.1734 17.9553C82.6164 18.5877 82.0732 19.2284 81.5493 19.8801C81.4004 20.0644 81.2404 20.1496 80.9647 20.1469C79.5888 20.1304 78.2128 20.1386 76.7734 20.1386V20.1359Z" fill="white"/>
<path d="M80.8418 16.4539C80.9107 16.3026 80.9879 16.2119 81.0844 16.1266C81.9806 15.3539 82.874 14.5813 83.7702 13.8113C83.9384 13.6683 84.1259 13.5858 84.3768 13.5913C85.2343 13.6051 86.0947 13.5941 86.9522 13.5968C87.0294 13.5968 87.137 13.5583 87.1783 13.6408C87.2197 13.7233 87.1149 13.7673 87.0597 13.8141C86.1636 14.584 85.4191 15.4722 84.625 16.3191C84.545 16.4044 84.4761 16.4566 84.3465 16.4566C83.1883 16.4566 82.0302 16.4566 80.8418 16.4566V16.4539Z" fill="white"/>
<path d="M63.7762 39.4286C65.4941 39.4286 67.1871 39.4286 68.8802 39.4286C68.9739 39.4286 69.0677 39.4286 69.1587 39.4286C69.3213 39.4258 69.3903 39.4616 69.3186 39.6238C69.087 40.149 68.8553 40.677 68.6458 41.2105C68.5796 41.3755 68.4776 41.4112 68.3039 41.4112C67.3112 41.4057 66.3158 41.4112 65.3231 41.4112C65.2211 41.4112 65.1218 41.4222 65.0529 41.3205C64.6282 40.688 64.2008 40.0583 63.7734 39.4313L63.7762 39.4286Z" fill="white"/>
<path d="M85.125 12.7719C85.4724 12.5106 85.7427 12.2934 86.0322 12.0954C87.0745 11.3777 88.1388 10.6875 89.2473 10.0523C89.4128 9.95881 89.5699 9.90656 89.7657 9.90931C90.4688 9.91481 91.1747 9.90931 91.9248 9.90931C91.729 10.1513 91.4615 10.275 91.2382 10.429C90.331 11.0615 89.4376 11.7104 88.6214 12.4336C88.3622 12.6619 88.0865 12.7884 87.6949 12.7746C86.8704 12.7471 86.046 12.7664 85.125 12.7664V12.7719Z" fill="white"/>
</g>
</g>
<defs>
<filter id="filter0_dd_404_20" x="0" y="-3" width="204" height="74" filterUnits="userSpaceOnUse" color-interpolation-filters="sRGB">
<feFlood flood-opacity="0" result="BackgroundImageFix"/>
<feColorMatrix in="SourceAlpha" type="matrix" values="0 0 0 0 0 0 0 0 0 0 0 0 0 0 0 0 0 0 127 0" result="hardAlpha"/>
<feOffset dy="-3"/>
<feComposite in2="hardAlpha" operator="out"/>
<feColorMatrix type="matrix" values="0 0 0 0 0.0313726 0 0 0 0 0.0313726 0 0 0 0 0.0313726 0 0 0 1 0"/>
<feBlend mode="normal" in2="BackgroundImageFix" result="effect1_dropShadow_404_20"/>
<feColorMatrix in="SourceAlpha" type="matrix" values="0 0 0 0 0 0 0 0 0 0 0 0 0 0 0 0 0 0 127 0" result="hardAlpha"/>
<feOffset dy="1"/>
<feComposite in2="hardAlpha" operator="out"/>
<feColorMatrix type="matrix" values="0 0 0 0 1 0 0 0 0 1 0 0 0 0 1 0 0 0 0.3 0"/>
<feBlend mode="normal" in2="effect1_dropShadow_404_20" result="effect2_dropShadow_404_20"/>
<feBlend mode="normal" in="SourceGraphic" in2="effect2_dropShadow_404_20" result="shape"/>
</filter>
<radialGradient id="paint0_radial_404_20" cx="0" cy="0" r="1" gradientTransform="matrix(127.628 37.9167 -6.42893 43.794 57.407 -7.29167)" gradientUnits="userSpaceOnUse">
<stop stop-color="white"/>
<stop offset="1" stop-color="white" stop-opacity="0"/>
</radialGradient>
<clipPath id="clip0_404_20">
<rect width="204" height="70" fill="white"/>
</clipPath>
</defs>
</svg>
