<svg width="150" height="90" viewBox="0 0 150 90" fill="none" xmlns="http://www.w3.org/2000/svg">
<g clip-path="url(#clip0_382_85)">
<path d="M53.1146 44.3304L59.3583 45.6165C58.5223 48.5376 57.2199 50.7031 55.4554 52.1173C53.691 53.5315 51.5437 54.2386 49.0136 54.2386C45.5024 54.2386 42.7919 53.0586 40.8778 50.6987C38.6206 47.9543 37.4941 44.1139 37.4941 39.1775C37.4941 34.2411 38.6294 30.4183 40.8998 27.4927C42.8271 25.0223 45.3175 23.7893 48.3712 23.7893C51.7681 23.7893 54.4302 25.0488 56.3574 27.5723C58.5751 30.4625 59.6839 34.7228 59.6839 40.353L59.6575 41.2325H43.9271C43.9623 43.5394 44.4771 45.3292 45.4716 46.5931C46.466 47.8571 47.6628 48.489 49.0665 48.489C51.0905 48.489 52.4369 47.1014 53.1146 44.326V44.3304ZM53.4402 36.5259C53.3874 34.2543 52.9034 32.544 51.9969 31.3994C51.0861 30.2548 50.0081 29.6803 48.754 29.6803C47.4252 29.6803 46.3076 30.2769 45.4012 31.4657C44.4727 32.6766 44.0195 34.3604 44.0371 36.5259H53.4402Z" fill="white"/>
<path d="M71.8688 53.558H65.5723V24.4787H71.4068V28.6152C72.4056 26.6795 73.3033 25.3935 74.0909 24.7527C74.8829 24.1119 75.7937 23.7937 76.8322 23.7937C78.2666 23.7937 79.6394 24.2754 80.9507 25.2432L78.9882 31.9518C77.9542 31.1121 76.973 30.6923 76.0445 30.6923C75.1733 30.6923 74.4033 31.0149 73.7433 31.6646C73.0789 32.3142 72.6036 33.4853 72.3132 35.1868C72.0228 36.8882 71.8776 40.0127 71.8776 44.5602V53.5536L71.8688 53.558Z" fill="white"/>
<path d="M95.5532 24.4788V30.6129H91.2719V42.3507C91.2719 44.8918 91.3335 46.3634 91.4611 46.7656C91.7163 47.4992 92.2312 47.8616 93.0144 47.8616C93.5952 47.8616 94.4312 47.6141 95.5224 47.1235L96.0681 53.0941C94.616 53.8586 92.9704 54.2431 91.1355 54.2431C89.5339 54.2431 88.2534 53.8586 87.2898 53.0897C86.3262 52.3207 85.6794 51.2159 85.3538 49.7707C85.0986 48.7101 84.971 46.5535 84.971 43.3008V30.6084H82.0801V24.4744H84.971V18.6983L91.2675 14.2083V24.4744H95.5488L95.5532 24.4788Z" fill="white"/>
<path d="M114.8 44.3304L121.044 45.6165C120.208 48.5376 118.905 50.7031 117.141 52.1173C115.377 53.5315 113.229 54.2386 110.699 54.2386C107.188 54.2386 104.477 53.0586 102.563 50.6987C100.306 47.9543 99.1797 44.1139 99.1797 39.1775C99.1797 34.2411 100.315 30.4183 102.585 27.4927C104.513 25.0223 107.003 23.7893 110.057 23.7893C113.454 23.7893 116.116 25.0488 118.043 27.5723C120.261 30.4625 121.369 34.7228 121.369 40.353L121.343 41.2325H105.613C105.648 43.5394 106.163 45.3292 107.157 46.5931C108.152 47.8571 109.348 48.489 110.752 48.489C112.776 48.489 114.122 47.1014 114.8 44.326V44.3304ZM115.126 36.5259C115.073 34.2543 114.589 32.544 113.682 31.3994C112.772 30.2548 111.694 29.6803 110.44 29.6803C109.111 29.6803 107.993 30.2769 107.087 31.4657C106.158 32.6766 105.705 34.3604 105.723 36.5259H115.126Z" fill="white"/>
<path d="M124.502 53.5581L133.021 38.687L124.858 24.4788H132.545L136.862 31.9784L141.156 24.4788H148.518L140.545 38.3776L149.283 53.5581H141.566L136.699 45.0862L131.837 53.5581H124.502Z" fill="white"/>
<path d="M150 57.8271H2.36719V58.1498H150V57.8271Z" fill="white"/>
<path d="M103.935 62.6973L99.918 68.6987H107.75V68.7032H116.44V89.9204H123.296V68.7032H132.144V62.6973H103.935Z" fill="white"/>
<path d="M62.3578 79.2699V73.5248V68.7033H75.8002V62.6753H55.5156V90.0001H75.8002V83.9721H62.3578V79.2699Z" fill="white"/>
<path d="M83.7787 62.6973H76.9277L86.0492 76.3265L76.9277 89.8983H83.7787L92.8958 76.3265L83.7787 62.6973Z" fill="white"/>
<path d="M90.5098 82.907L95.2091 89.8984H102.056L93.9331 77.8115L90.5098 82.907Z" fill="white"/>
<path d="M102.056 62.6973H95.2091L90.5098 69.7196L93.9331 74.8416L102.056 62.6973Z" fill="white"/>
<path d="M64.9336 79.2433H82.2789L84.2281 76.3266L82.2613 73.3877H64.9336V79.2433Z" fill="white"/>
<path d="M53.8751 62.6753V68.5309H45.8977V90.0001H37.5375L28.6977 74.2098V90.0001H21.8555V62.6753H29.7757L39.0599 79.3097V62.6753H53.8751Z" fill="white"/>
<path d="M0 31.3598C1.16603 31.2051 2.33646 31.0593 3.50249 30.8958C5.25374 30.6483 6.99619 30.3787 8.74743 30.1268C9.23145 30.0561 9.74186 30.0517 10.2039 29.9235C10.8551 29.7379 11.2643 29.9765 11.6603 30.3831C12.4435 31.1919 13.2532 31.9829 14.054 32.7873C14.1068 32.8403 14.1816 32.8889 14.1332 33.0038C13.8384 32.9861 13.5392 32.9552 13.2356 32.9552C9.33265 32.9552 5.42974 32.9508 1.52684 32.9552C1.18363 32.9552 0.963626 32.9022 0.774421 32.5972C0.550015 32.2304 0.36521 31.8283 0 31.5366C0 31.4791 0 31.4173 0 31.3598Z" fill="white"/>
<path d="M67.3883 0C66.2179 0.592193 65.0387 1.17555 63.8815 1.78542C63.0454 2.22293 62.2314 2.6958 61.4174 3.16425C61.2018 3.28799 60.9906 3.36312 60.7266 3.3587C59.7013 3.34987 58.6717 3.3587 57.6465 3.3587C57.6553 3.27916 57.7697 3.27032 57.8533 3.23054C60.7222 1.90474 63.6394 0.684999 66.8295 0.0839676C66.8867 0.0707096 66.9395 0.0309354 66.9967 0C67.1287 0 67.2607 0 67.3927 0L67.3883 0Z" fill="white"/>
<path d="M1.99854 34.3604H7.54269C10.042 34.3604 12.5368 34.3692 15.0361 34.3516C15.4013 34.3516 15.6653 34.4355 15.8985 34.683C16.7125 35.5492 17.5618 36.3889 18.345 37.2683C19.0358 38.0417 19.0094 38.0638 19.5858 37.2197C20.2106 36.3049 20.9278 35.4431 21.6099 34.5637C21.7815 34.3427 21.9839 34.3604 22.2127 34.3604C25.3368 34.3604 28.4652 34.3604 31.5893 34.3604C31.8929 34.3604 32.1965 34.3295 32.5574 34.3074C31.9809 35.2487 31.4265 36.1414 30.8765 37.0429C30.6169 37.4716 30.3573 37.8959 30.1241 38.3334C29.9217 38.7179 29.6489 38.8814 29.1341 38.877C21.4603 38.8593 13.7865 38.8637 6.10825 38.8681C5.83104 38.8681 5.54504 38.8239 5.27223 38.9079C5.10942 38.9565 5.03022 38.8858 4.95542 38.7709C3.98739 37.3258 3.01497 35.8762 1.99414 34.3604H1.99854Z" fill="white"/>
<path d="M28.8785 40.2778C28.9269 40.4148 28.8609 40.4855 28.8169 40.5651C28.0909 41.8865 27.3605 43.2034 26.6476 44.5292C26.5024 44.7988 26.3264 44.8784 26.0008 44.8784C20.5095 44.8695 15.0181 44.8695 9.52679 44.8784C9.23638 44.8784 9.06038 44.8209 8.89757 44.5779C8.01755 43.2521 7.11113 41.9395 6.2047 40.627C5.9715 40.2867 6.1739 40.2778 6.48191 40.2778C9.20998 40.2778 11.9381 40.2778 14.6661 40.2778C19.229 40.2778 23.7964 40.2778 28.3593 40.2778H28.8785Z" fill="white"/>
<path d="M10.0806 46.1999H10.767C15.4619 46.1999 20.1612 46.1999 24.8562 46.1999C25.0058 46.1999 25.1554 46.1866 25.3006 46.1999C25.4546 46.2131 25.635 46.0099 25.7406 46.191C25.8198 46.3192 25.6438 46.4562 25.5822 46.5888C24.9618 47.8837 24.3326 49.1785 23.7253 50.4778C23.6197 50.7032 23.5009 50.796 23.2237 50.796C19.9676 50.7872 16.7071 50.7916 13.4511 50.796C13.2619 50.796 13.1035 50.7783 12.9891 50.606C12.0386 49.1962 11.0838 47.7909 10.129 46.3855C10.107 46.3501 10.107 46.3015 10.0762 46.1999H10.0806Z" fill="white"/>
<path d="M23.022 32.9507C24.1528 31.6381 25.332 30.4891 26.3837 29.2561C26.9777 28.5623 27.6333 28.412 28.5309 28.4253C30.9906 28.4695 33.4547 28.4385 35.9143 28.4429C36.0683 28.4429 36.2795 28.359 36.3631 28.5225C36.4247 28.6462 36.2707 28.7567 36.1959 28.8672C35.3863 30.056 34.5679 31.2448 33.7803 32.4469C33.5515 32.796 33.3007 32.9595 32.8122 32.9551C29.741 32.933 26.6653 32.9418 23.594 32.9418H23.0176L23.022 32.9507Z" fill="white"/>
<path d="M40.8684 22.5253C39.9224 23.7848 38.9808 24.9471 38.1535 26.1757C37.7003 26.8518 37.1811 27.0772 36.2967 27.0551C33.9382 26.9888 31.571 27.033 29.2081 27.0286C29.0497 27.0286 28.8297 27.1082 28.7505 26.9623C28.6625 26.8032 28.8869 26.7237 28.9925 26.622C30.1805 25.4465 31.373 24.2709 32.5566 23.0954C32.9306 22.7242 33.3134 22.4944 33.947 22.5076C36.2263 22.5518 38.5055 22.5253 40.8684 22.5253Z" fill="white"/>
<path d="M34.7441 21.1112C35.0785 20.762 35.3338 20.4615 35.6242 20.1919C36.8474 19.0606 38.0882 17.9425 39.3115 16.8111C39.5315 16.6078 39.7603 16.5106 40.0859 16.515C41.9691 16.5283 43.8524 16.5239 45.784 16.5239C45.6036 16.9702 45.2472 17.2752 44.9568 17.6066C44.068 18.6231 43.2012 19.6528 42.3651 20.7002C42.1275 20.9963 41.8723 21.1333 41.4323 21.1288C39.2367 21.1023 37.041 21.1156 34.7441 21.1156V21.1112Z" fill="white"/>
<path d="M41.2383 15.1938C41.3483 14.9507 41.4715 14.8049 41.6255 14.6679C43.0555 13.426 44.4812 12.1842 45.9112 10.9468C46.1796 10.717 46.4788 10.5844 46.8792 10.5932C48.2477 10.6153 49.6205 10.5976 50.9889 10.6021C51.1121 10.6021 51.2837 10.5402 51.3497 10.6728C51.4158 10.8054 51.2485 10.8761 51.1605 10.9512C49.7305 12.1886 48.5425 13.6161 47.2752 14.9772C47.1476 15.1142 47.0376 15.1982 46.8308 15.1982C44.9828 15.1982 43.1347 15.1982 41.2383 15.1982V15.1938Z" fill="white"/>
<path d="M14.0064 52.1174C16.7476 52.1174 19.4493 52.1174 22.151 52.1174C22.3006 52.1174 22.4502 52.1174 22.5954 52.1174C22.855 52.113 22.965 52.1704 22.8506 52.4312C22.481 53.2753 22.1114 54.1238 21.777 54.9812C21.6714 55.2463 21.5086 55.3038 21.2313 55.3038C19.6473 55.2949 18.0589 55.3038 16.4748 55.3038C16.312 55.3038 16.1536 55.3214 16.0436 55.1579C15.366 54.1415 14.684 53.1294 14.002 52.1218L14.0064 52.1174Z" fill="white"/>
<path d="M48.0703 9.27624C48.6247 8.85641 49.0559 8.50728 49.518 8.18908C51.1812 7.03563 52.8796 5.92638 54.6485 4.90551C54.9125 4.75525 55.1633 4.67128 55.4757 4.6757C56.5977 4.68454 57.7242 4.6757 58.921 4.6757C58.6086 5.06461 58.1818 5.26348 57.8254 5.51096C56.3777 6.52741 54.9521 7.57038 53.6497 8.73266C53.2361 9.09947 52.796 9.30276 52.1712 9.28066C50.8556 9.23647 49.54 9.2674 48.0703 9.2674V9.27624Z" fill="white"/>
</g>
<defs>
<clipPath id="clip0_382_85">
<rect width="150" height="90" fill="white"/>
</clipPath>
</defs>
</svg>
